<svg xmlns="http://www.w3.org/2000/svg"><defs><linearGradient id="a" x1="0%" y1="0%" x2="0%" y2="100%"><stop offset="0%" stop-color="rgba(240,185,10,.65)"/><stop offset="80%" stop-color="rgba(240,185,10,.05)"/><stop offset="100%" stop-color="transparent"/></linearGradient></defs><path d="M0 18l4-6 5 1 4-7 4 2 5 4 4-7 4-2h5l4 5 4 1 5-1 4-7 5 1 4 27 4-6 5 6 4-1 4-2 5-1 4 3 4-13 5 1 4 1" stroke="rgba(240, 185, 10, 1)" fill="none"/><path d="M0 28V18l4-6 5 1 4-7 4 2 5 4 4-7 4-2h5l4 5 4 1 5-1 4-7 5 1 4 27 4-6 5 6 4-1 4-2 5-1 4 3 4-13 5 1 4 1v11" fill="url(#a)"/></svg>