<svg xmlns="http://www.w3.org/2000/svg"><defs><linearGradient id="a" x1="0%" y1="0%" x2="0%" y2="100%"><stop offset="0%" stop-color="rgba(240,185,10,.65)"/><stop offset="80%" stop-color="rgba(240,185,10,.05)"/><stop offset="100%" stop-color="transparent"/></linearGradient></defs><path d="M0 11l4-4 5 1 4-5 4 5 5 1 4-3 4-5 5 2 4 7 4-2 5 3 4-1 5 3 4 13 4-2 5 2 4-4h4l5 6 4 1 4-9 5 3h4" stroke="rgba(240, 185, 10, 1)" fill="none"/><path d="M0 28V11l4-4 5 1 4-5 4 5 5 1 4-3 4-5 5 2 4 7 4-2 5 3 4-1 5 3 4 13 4-2 5 2 4-4h4l5 6 4 1 4-9 5 3h4v5" fill="url(#a)"/></svg>