<svg xmlns="http://www.w3.org/2000/svg"><defs><linearGradient id="a" x1="0%" y1="0%" x2="0%" y2="100%"><stop offset="0%" stop-color="rgba(240,185,10,.65)"/><stop offset="80%" stop-color="rgba(240,185,10,.05)"/><stop offset="100%" stop-color="transparent"/></linearGradient></defs><path d="M0 7l4-3h5l4-3 4 2 5 3 4-5 4 2h5l4 2h9l4-2 5 2 4 22 4-2 5 4 4-1h4l5-1 4 2 4-8 5 2 4-1" stroke="rgba(240, 185, 10, 1)" fill="none"/><path d="M0 28V7l4-3h5l4-3 4 2 5 3 4-5 4 2h5l4 2h9l4-2 5 2 4 22 4-2 5 4 4-1h4l5-1 4 2 4-8 5 2 4-1v6" fill="url(#a)"/></svg>